<?xml version="1.0" encoding="UTF-8" standalone="no"?>
<!-- Created with Inkscape (http://www.inkscape.org/) -->

<svg
   width="115.98672mm"
   height="21.294825mm"
   viewBox="0 0 115.98672 21.294825"
   version="1.1"
   id="svg5"
   xml:space="preserve"
   inkscape:version="1.2 (dc2aeda, 2022-05-15)"
   sodipodi:docname="title.svg"
   xmlns:inkscape="http://www.inkscape.org/namespaces/inkscape"
   xmlns:sodipodi="http://sodipodi.sourceforge.net/DTD/sodipodi-0.dtd"
   xmlns="http://www.w3.org/2000/svg"
   xmlns:svg="http://www.w3.org/2000/svg"><sodipodi:namedview
     id="namedview7"
     pagecolor="#ffffff"
     bordercolor="#000000"
     borderopacity="0.25"
     inkscape:showpageshadow="2"
     inkscape:pageopacity="0.0"
     inkscape:pagecheckerboard="0"
     inkscape:deskcolor="#d1d1d1"
     inkscape:document-units="mm"
     showgrid="false"
     inkscape:zoom="1.1831108"
     inkscape:cx="385.84721"
     inkscape:cy="64.237432"
     inkscape:window-width="1652"
     inkscape:window-height="456"
     inkscape:window-x="0"
     inkscape:window-y="25"
     inkscape:window-maximized="0"
     inkscape:current-layer="text295" /><defs
     id="defs2"><rect
       x="233.32127"
       y="29.695436"
       width="528.57874"
       height="153.56783"
       id="rect233" /></defs><g
     inkscape:label="Layer 1"
     inkscape:groupmode="layer"
     id="layer1"
     transform="translate(-5.314556,-5.4504804)"><g
       aria-label="Albus Box"
       id="text295"
       style="font-weight:500;font-size:25.4px;font-family:Futura;-inkscape-font-specification:'Futura Medium';stroke-width:0.264583"
       transform="translate(-44.979189,-5.8208336)"><path
         d="m 63.737886,27.567993 h -8.197949 l -2.133203,4.650879 h -3.112989 l 9.475391,-20.352246 9.140527,20.352246 h -3.162597 z m -1.178223,-2.716113 -2.840136,-6.51123 -2.976563,6.51123 z"
         id="path499" /><path
         d="M 73.560543,11.271314 V 32.218872 H 70.770015 V 11.271314 Z"
         id="path501" /><path
         d="m 79.885738,11.271314 v 10.26914 q 1.674316,-1.736328 3.795117,-1.736328 2.443262,0 4.067969,1.823145 1.624707,1.810742 1.624707,4.514453 0,2.790527 -1.63711,4.613672 -1.624707,1.810742 -4.105175,1.810742 -2.095996,0 -3.745508,-1.612305 v 1.265039 H 77.095211 V 11.271314 Z m 6.635254,14.994433 q 0,-1.736328 -0.942578,-2.827734 -0.954981,-1.116211 -2.393653,-1.116211 -1.53789,0 -2.505273,1.079004 -0.954981,1.066601 -0.954981,2.778125 0,1.761133 0.942579,2.815332 0.942578,1.079004 2.480468,1.079004 1.451074,0 2.406055,-1.079004 0.967383,-1.091406 0.967383,-2.728516 z"
         id="path503" /><path
         d="m 95.115816,20.138989 v 6.93291 q 0,3.001368 2.368847,3.001368 2.368848,0 2.368848,-3.001368 v -6.93291 h 2.790529 v 6.994922 q 0,1.451074 -0.35967,2.505274 -0.34727,0.942578 -1.20303,1.699121 -1.413864,1.227832 -3.596677,1.227832 -2.17041,0 -3.584277,-1.227832 -0.868164,-0.756543 -1.227832,-1.699121 -0.347266,-0.84336 -0.347266,-2.505274 v -6.994922 z"
         id="path505" /><path
         d="m 113.18603,22.197778 -2.30684,1.227832 q -0.5457,-1.11621 -1.35185,-1.11621 -0.38447,0 -0.65733,0.260449 -0.27285,0.248047 -0.27285,0.644922 0,0.694531 1.61231,1.37666 2.22002,0.95498 2.98896,1.761133 0.76895,0.806152 0.76895,2.17041 0,1.74873 -1.28985,2.926953 -1.25263,1.116211 -3.02617,1.116211 -3.03857,0 -4.30361,-2.96416 l 2.38125,-1.103809 q 0.49609,0.868164 0.75654,1.103809 0.5085,0.471289 1.21543,0.471289 1.41387,0 1.41387,-1.289844 0,-0.744141 -1.09141,-1.389063 -0.42168,-0.210839 -0.84336,-0.409277 -0.42168,-0.198437 -0.85576,-0.409277 -1.21543,-0.595313 -1.71152,-1.190625 -0.63252,-0.756543 -0.63252,-1.947168 0,-1.575098 1.079,-2.604492 1.10381,-1.029395 2.67891,-1.029395 2.31924,0 3.44785,2.393652 z"
         id="path507" /><path
         d="M 124.84423,32.218872 V 13.069654 h 2.87734 q 1.92237,0 3.06338,0.297656 1.15342,0.297656 1.94717,1.00459 0.80615,0.731738 1.27744,1.823144 0.48369,1.103809 0.48369,2.232422 0,2.058789 -1.57509,3.485059 1.52548,0.520898 2.40605,1.823144 0.89297,1.289844 0.89297,3.001367 0,2.244824 -1.5875,3.795117 -0.95498,0.954981 -2.14561,1.327051 -1.30224,0.359668 -3.26181,0.359668 z m 2.88975,-10.926465 h 0.90537 q 1.6123,0 2.35644,-0.706933 0.75655,-0.719336 0.75655,-2.108399 0,-1.351855 -0.76895,-2.046386 -0.76894,-0.706934 -2.23242,-0.706934 h -1.01699 z m 0,8.210352 h 1.78593 q 1.95957,0 2.87735,-0.768945 0.96738,-0.830957 0.96738,-2.108399 0,-1.240234 -0.93018,-2.083594 -0.90537,-0.830957 -3.23701,-0.830957 h -1.46347 z"
         id="path509" /><path
         d="m 138.75966,26.092114 q 0,-2.616894 1.87276,-4.452441 1.87275,-1.835547 4.56406,-1.835547 2.70371,0 4.58887,1.847949 1.86035,1.84795 1.86035,4.539258 0,2.716113 -1.87276,4.55166 -1.88515,1.823145 -4.62607,1.823145 -2.71611,0 -4.55166,-1.860352 -1.83555,-1.835547 -1.83555,-4.613672 z m 2.85254,0.04961 q 0,1.810742 0.96739,2.864941 0.99218,1.066602 2.61689,1.066602 1.63711,0 2.61689,-1.0542 0.97979,-1.054199 0.97979,-2.815332 0,-1.761132 -0.97979,-2.815332 -0.99218,-1.066601 -2.61689,-1.066601 -1.5999,0 -2.59209,1.066601 -0.99219,1.066602 -0.99219,2.753321 z"
         id="path511" /><path
         d="m 157.73525,25.682837 -4.34082,-5.543848 h 3.32383 l 2.6913,3.522266 2.74092,-3.522266 h 3.42305 l -4.46484,5.543848 5.17177,6.536035 h -3.32383 l -3.54707,-4.514453 -3.63388,4.514453 h -3.41065 z"
         id="path513" /></g></g></svg>
